<?xml version="1.0" standalone="no"?>
<!DOCTYPE svg PUBLIC "-//W3C//DTD SVG 20010904//EN"
 "http://www.w3.org/TR/2001/REC-SVG-20010904/DTD/svg10.dtd">
<svg version="1.0" xmlns="http://www.w3.org/2000/svg"
 width="700.000000pt" height="700.000000pt" viewBox="0 0 700.000000 700.000000"
 preserveAspectRatio="xMidYMid meet">
<metadata>
Created by potrace 1.14, written by Peter Selinger 2001-2017
</metadata>
<g transform="translate(0.000000,700.000000) scale(0.100000,-0.100000)"
fill="#000000" stroke="none">
<path d="M3408 6945 c-2 -1 -28 -6 -58 -9 -162 -19 -315 -76 -485 -181 l-70
-44 -84 25 c-126 36 -183 43 -336 40 -142 -4 -154 -5 -260 -32 -109 -28 -267
-107 -367 -183 -161 -122 -343 -348 -400 -496 -23 -58 -53 -171 -63 -232 l-7
-43 -91 -1 c-96 0 -155 -5 -197 -15 -14 -3 -36 -8 -50 -10 -53 -9 -188 -58
-260 -94 -219 -111 -401 -294 -508 -511 -45 -93 -88 -215 -97 -281 -3 -24 -8
-51 -11 -61 -10 -33 -12 -231 -3 -297 21 -158 75 -317 152 -444 l45 -75 -23
-58 c-41 -102 -59 -215 -59 -373 -1 -170 15 -243 88 -405 40 -90 43 -102 30
-120 -53 -74 -107 -163 -135 -221 -31 -68 -75 -202 -85 -259 -2 -16 -8 -53
-13 -82 -12 -79 -5 -268 14 -358 91 -433 397 -759 826 -879 84 -24 152 -31
286 -31 l122 0 10 -40 c6 -22 17 -73 26 -113 74 -349 344 -655 682 -776 131
-46 201 -59 353 -62 150 -3 250 11 368 50 l52 18 72 -48 c195 -128 409 -192
635 -188 239 3 425 60 626 191 l68 44 48 -16 c26 -8 57 -18 69 -20 12 -3 32
-7 45 -10 12 -3 38 -8 57 -11 19 -3 46 -7 60 -10 33 -6 188 -6 234 1 20 3 53
7 74 10 304 43 627 281 774 570 62 121 112 289 117 395 1 13 18 14 108 12 528
-16 1011 356 1127 866 25 109 27 132 30 238 7 255 -70 501 -220 701 l-32 43
29 86 c46 135 62 249 56 394 -3 69 -8 136 -11 150 -21 93 -32 132 -52 186
l-23 61 50 69 c98 137 176 335 196 499 12 102 5 348 -12 374 -2 4 -7 23 -10
41 -20 114 -103 292 -195 415 -152 206 -405 373 -640 423 -131 28 -161 31
-278 29 -76 -1 -122 2 -122 8 -2 34 -14 100 -31 170 -80 318 -317 596 -617
725 -147 63 -237 82 -407 86 -82 2 -168 -1 -190 -6 -22 -5 -54 -11 -71 -14
-17 -3 -62 -15 -99 -27 l-67 -20 -57 39 c-115 81 -296 156 -441 182 -58 11
-284 22 -292 15z"/>
</g>
</svg>
