<?xml version="1.0" encoding="UTF-8" standalone="no"?>
<svg
   version="1.0"
   width="500.000000pt"
   height="500.000000pt"
   viewBox="0 0 530 530"
   preserveAspectRatio="xMidYMid meet"
   id="svg15"
   sodipodi:docname="game-controller.svg"
   inkscape:version="1.3 (0e150ed, 2023-07-21)"
   xmlns:inkscape="http://www.inkscape.org/namespaces/inkscape"
   xmlns:sodipodi="http://sodipodi.sourceforge.net/DTD/sodipodi-0.dtd"
   xmlns="http://www.w3.org/2000/svg"
   xmlns:svg="http://www.w3.org/2000/svg">
  <defs
     id="defs15" />
  <sodipodi:namedview
     id="namedview15"
     pagecolor="#ffffff"
     bordercolor="#000000"
     borderopacity="0.25"
     inkscape:showpageshadow="2"
     inkscape:pageopacity="0.0"
     inkscape:pagecheckerboard="0"
     inkscape:deskcolor="#d1d1d1"
     inkscape:document-units="pt"
     inkscape:zoom="0.354"
     inkscape:cx="333.33333"
     inkscape:cy="333.33333"
     inkscape:window-width="1920"
     inkscape:window-height="1027"
     inkscape:window-x="0"
     inkscape:window-y="65"
     inkscape:window-maximized="1"
     inkscape:current-layer="svg15" />
  <g
     id="g15"
     transform="matrix(10.112104,0,0,10.112104,-2414.7075,469.09837)">
    <g
       id="g5"
       transform="matrix(0.10216879,0,0,0.10216879,238.84454,-46.333367)"
       inkscape:label="g5">
      <path
         d="M 467.51,248.83 C 449.11,165.65 421.82,112.59 378.08,99.66 A 91.5,91.5 0 0 0 352,96 c -26.89,0 -48.11,16 -96,16 -47.89,0 -69.15,-16 -96,-16 a 99.09,99.09 0 0 0 -27.2,3.66 C 89,112.59 61.94,165.7 43.33,248.83 c -19,84.91 -15.56,152 21.58,164.88 26,9 49.25,-9.61 71.27,-37 25,-31.2 55.79,-40.8 119.82,-40.8 64.03,0 93.62,9.6 118.66,40.8 22,27.41 46.11,45.79 71.42,37.16 41.02,-14.01 40.44,-79.13 21.43,-165.04 z"
         style="fill:none;stroke:#000000;stroke-width:32px;stroke-miterlimit:10"
         id="path1" />
      <circle
         cx="292"
         cy="224"
         r="20"
         id="circle1-5" />
      <path
         d="M 336,288 A 20,20 0 1 1 356,268.05 20,20 0 0 1 336,288 Z"
         id="path2" />
      <circle
         cx="336"
         cy="180"
         r="20"
         id="circle2" />
      <circle
         cx="380"
         cy="224"
         r="20"
         id="circle3" />
      <line
         x1="160"
         y1="176"
         x2="160"
         y2="272"
         style="fill:none;stroke:#000000;stroke-width:32px;stroke-linecap:round;stroke-linejoin:round"
         id="line3" />
      <line
         x1="208"
         y1="224"
         x2="112"
         y2="224"
         style="fill:none;stroke:#000000;stroke-width:32px;stroke-linecap:round;stroke-linejoin:round"
         id="line4" />
    </g>
  </g>
</svg>
