<?xml version="1.0" encoding="UTF-8" standalone="no"?>
<svg
   version="1.0"
   width="580pt"
   height="580pt"
   viewBox="0 0 614.8 614.8"
   preserveAspectRatio="xMidYMid"
   id="svg15"
   sodipodi:docname="hana_ds-logo-bg.svg"
   inkscape:version="1.3 (0e150ed, 2023-07-21)"
   xmlns:inkscape="http://www.inkscape.org/namespaces/inkscape"
   xmlns:sodipodi="http://sodipodi.sourceforge.net/DTD/sodipodi-0.dtd"
   xmlns="http://www.w3.org/2000/svg"
   xmlns:svg="http://www.w3.org/2000/svg">
  <defs
     id="defs15" />
  <sodipodi:namedview
     id="namedview15"
     pagecolor="#ffffff"
     bordercolor="#000000"
     borderopacity="0.25"
     inkscape:showpageshadow="2"
     inkscape:pageopacity="0.0"
     inkscape:pagecheckerboard="0"
     inkscape:deskcolor="#d1d1d1"
     inkscape:document-units="pt"
     showgrid="false"
     inkscape:zoom="0.85694849"
     inkscape:cx="392.08891"
     inkscape:cy="438.1827"
     inkscape:window-width="1920"
     inkscape:window-height="1080"
     inkscape:window-x="1792"
     inkscape:window-y="40"
     inkscape:window-maximized="0"
     inkscape:current-layer="svg15" />
  <circle
     style="fill:#ffffff;fill-opacity:1;stroke-width:0.880266"
     id="path15"
     cx="307.39999"
     cy="307.39999"
     r="296.80002" />
  <g
     id="g15"
     transform="translate(42.400008,42.400008)">
    <g
       transform="matrix(0.1,0,0,-0.1,4.66872,508.65622)"
       fill="#000000"
       stroke="none"
       style="visibility:hidden"
       id="g2">
      <path
         d="m 2387,4990 c -149,-25 -331,-111 -406,-191 -17,-19 -18,-19 -73,0 -182,62 -395,49 -559,-34 -148,-75 -205,-123 -298,-249 -62,-83 -101,-177 -120,-286 l -17,-95 -55,-2 C 690,4127 559,4088 435,4005 287,3907 157,3729 116,3566 67,3378 94,3146 181,2993 l 32,-55 -47,-89 c -36,-67 -52,-112 -66,-189 -37,-188 -19,-334 62,-497 l 50,-102 -31,-55 C 107,1878 78,1708 99,1538 119,1373 173,1255 286,1126 423,970 600,884 809,871 l 105,-6 17,-95 c 41,-231 183,-416 406,-528 174,-88 377,-102 566,-40 59,19 59,19 78,-1 32,-34 82,-68 154,-105 248,-126 482,-126 730,0 72,37 122,71 155,106 l 19,20 63,-21 c 186,-63 402,-46 573,46 133,71 185,116 274,236 62,84 99,172 118,273 8,49 17,94 19,100 1,8 33,12 88,13 199,3 408,103 544,260 109,127 163,246 183,409 21,170 -8,340 -82,469 l -32,55 47,88 c 114,217 112,504 -4,710 l -43,75 35,65 c 66,122 95,263 84,416 -12,179 -70,318 -189,454 -150,171 -333,254 -577,263 l -54,2 -13,81 c -22,145 -78,258 -186,379 -167,186 -447,280 -689,230 -40,-8 -92,-22 -116,-31 l -42,-16 -48,44 c -51,45 -181,114 -267,141 -107,34 -234,44 -338,27 z m 308,-94 c 176,-48 339,-183 430,-357 95,-181 101,-416 16,-603 -37,-81 -126,-202 -182,-248 -71,-57 -178,-115 -259,-140 -62,-19 -97,-23 -200,-23 -147,0 -232,21 -345,87 -102,59 -150,102 -212,185 -101,137 -143,261 -143,423 0,156 42,285 134,414 53,75 105,123 197,182 74,48 120,67 214,89 77,18 269,13 350,-9 z m -878,-152 c 37,-8 71,-19 76,-23 4,-4 -7,-25 -24,-47 -128,-159 -175,-443 -111,-671 38,-135 93,-226 201,-333 151,-150 325,-222 541,-223 142,-1 208,15 349,84 89,44 118,64 191,138 109,108 164,199 202,334 64,229 18,512 -111,671 -17,22 -28,43 -24,46 19,17 149,40 222,40 157,0 328,-59 438,-152 130,-108 243,-321 243,-455 0,-28 -4,-33 -22,-33 -40,0 -212,-66 -270,-103 -64,-41 -183,-156 -228,-221 -35,-52 -79,-152 -106,-241 -14,-46 -19,-93 -19,-200 1,-132 2,-145 33,-235 44,-128 101,-220 186,-303 167,-162 325,-227 556,-227 124,0 224,21 320,66 83,39 205,128 249,181 l 29,35 30,-54 c 75,-132 99,-310 64,-459 -22,-89 -64,-190 -88,-210 -11,-9 -19,-5 -39,19 -42,50 -165,139 -245,176 -96,45 -196,66 -320,66 -173,0 -319,-43 -442,-129 -67,-46 -170,-150 -211,-213 -107,-163 -152,-394 -113,-580 19,-88 69,-210 113,-277 41,-63 153,-176 218,-221 53,-37 199,-97 256,-106 23,-4 43,-13 46,-22 11,-27 -26,-164 -67,-249 -56,-115 -182,-244 -290,-297 -148,-72 -317,-94 -459,-61 -96,23 -97,25 -60,71 129,159 175,442 111,671 -38,135 -93,226 -201,333 -212,209 -514,281 -784,187 -124,-44 -207,-96 -302,-192 -111,-111 -164,-201 -200,-339 -59,-230 -12,-504 114,-660 37,-46 36,-48 -60,-71 -142,-33 -312,-10 -459,62 -89,44 -217,165 -268,255 -45,78 -82,190 -85,251 l -2,50 55,14 c 149,38 255,98 360,202 84,84 130,152 170,254 80,201 80,394 0,593 -41,102 -91,178 -169,252 -164,158 -323,222 -551,222 -124,0 -224,-21 -320,-66 -79,-37 -203,-126 -245,-176 -14,-17 -30,-26 -36,-22 -17,10 -74,141 -90,204 -7,30 -13,98 -13,150 0,52 6,120 13,150 16,63 73,194 90,204 6,4 22,-5 36,-22 42,-50 166,-139 245,-176 96,-45 196,-66 320,-66 207,0 367,58 513,187 125,110 185,204 238,371 29,91 36,262 16,358 -20,94 -69,215 -114,284 -48,72 -170,191 -241,234 -45,27 -177,77 -269,102 -30,8 2,146 59,263 58,118 180,242 290,296 145,71 318,93 465,59 z m -771,-704 c 226,-58 438,-270 500,-500 22,-81 25,-262 5,-340 -39,-155 -149,-320 -270,-404 -82,-56 -187,-104 -266,-121 -353,-75 -700,126 -817,471 -70,209 -38,418 92,612 92,137 250,248 406,286 90,22 255,20 350,-4 z m 3254,4 c 159,-37 317,-147 410,-286 66,-98 95,-169 117,-283 30,-158 -5,-335 -97,-480 -79,-125 -163,-201 -298,-269 -164,-83 -402,-87 -570,-11 -328,148 -494,487 -406,828 46,181 199,363 382,456 114,58 322,78 462,45 z M 1074,2311 c 72,-26 176,-82 231,-125 110,-86 211,-245 246,-386 20,-79 17,-270 -6,-345 -69,-233 -275,-437 -499,-495 -99,-25 -261,-27 -350,-4 -146,37 -311,148 -393,265 -104,149 -138,254 -137,424 1,102 5,132 28,200 80,238 263,411 500,476 96,26 292,21 380,-10 z m 3228,10 c 239,-61 431,-244 505,-481 50,-158 34,-360 -39,-504 -75,-147 -191,-262 -333,-331 -114,-55 -181,-68 -325,-62 -206,7 -322,58 -470,207 -143,143 -203,285 -204,485 -1,125 12,189 59,290 84,180 229,313 415,380 107,39 275,46 392,16 z M 2705,1450 c 77,-24 185,-83 254,-138 56,-46 145,-167 182,-248 42,-91 59,-175 59,-285 0,-272 -154,-516 -404,-638 -165,-80 -427,-80 -592,0 -249,122 -404,366 -404,637 0,162 43,288 143,424 104,141 234,221 442,272 11,3 72,3 135,2 84,-3 134,-9 185,-26 z"
         id="path1" />
      <path
         d="m 2300,3250 c -41,-11 -113,-39 -160,-62 -70,-35 -103,-60 -186,-143 -84,-83 -108,-114 -142,-185 -60,-122 -82,-218 -82,-360 0,-142 22,-238 82,-360 34,-71 58,-102 142,-185 83,-83 116,-108 186,-143 122,-60 218,-82 360,-82 142,0 238,22 360,82 71,34 102,58 186,142 84,84 108,115 142,186 60,122 82,218 82,360 0,143 -22,239 -82,360 -35,70 -60,103 -143,186 -83,84 -114,108 -185,142 -124,61 -218,82 -364,81 -85,0 -143,-6 -196,-19 z"
         id="path2" />
    </g>
    <g
       transform="matrix(0,0.95,-0.95,0,502.49972,27.500164)"
       id="g7">
      <circle
         style="fill:#ffffff;stroke:#000000;stroke-width:23.1579px;stroke-miterlimit:13"
         cx="250"
         cy="75"
         id="ellipse2"
         r="75" />
      <circle
         style="fill:#ffffff;stroke:#000000;stroke-width:23.1579px;stroke-miterlimit:13"
         cx="250"
         cy="425"
         id="ellipse3"
         r="75" />
      <circle
         style="fill:#ffffff;stroke:#000000;stroke-width:23.1579px;stroke-miterlimit:13"
         cx="425"
         cy="162.5"
         id="ellipse4"
         r="75" />
      <circle
         style="fill:#ffffff;stroke:#000000;stroke-width:23.1579px;stroke-miterlimit:13"
         cx="425"
         cy="337.5"
         id="ellipse5"
         r="75" />
      <circle
         style="fill:#ffffff;stroke:#000000;stroke-width:23.1579px;stroke-miterlimit:13"
         cx="75"
         cy="162.5"
         id="ellipse6"
         r="75" />
      <circle
         style="fill:#ffffff;stroke:#000000;stroke-width:23.1579px;stroke-miterlimit:13"
         cx="75"
         cy="337.5"
         id="ellipse7"
         r="75" />
    </g>
    <circle
       style="fill:#ffffff;stroke:#ffffff;stroke-width:22px;stroke-miterlimit:13"
       cx="265"
       cy="265"
       id="ellipse8"
       r="150" />
    <circle
       style="stroke:#000000;stroke-width:22px;stroke-miterlimit:13"
       cx="265"
       cy="265"
       id="ellipse9"
       r="75" />
    <circle
       style="fill:#ffffff;stroke:#000000;stroke-width:22px;stroke-miterlimit:13"
       cx="265"
       cy="90"
       id="ellipse10"
       r="75" />
    <circle
       style="fill:#ffffff;stroke:#000000;stroke-width:22px;stroke-miterlimit:13"
       cx="265"
       cy="440"
       id="ellipse11"
       r="75" />
    <circle
       style="fill:#ffffff;stroke:#000000;stroke-width:22px;stroke-miterlimit:13"
       cx="440"
       cy="177.5"
       id="ellipse12"
       r="75" />
    <circle
       style="fill:#ffffff;stroke:#000000;stroke-width:22px;stroke-miterlimit:13"
       cx="440"
       cy="352.5"
       id="ellipse13"
       r="75" />
    <circle
       style="fill:#ffffff;stroke:#000000;stroke-width:22px;stroke-miterlimit:13"
       cx="90"
       cy="177.5"
       id="ellipse14"
       r="75" />
    <circle
       style="fill:#ffffff;stroke:#000000;stroke-width:22px;stroke-miterlimit:13"
       cx="90"
       cy="352.5"
       id="ellipse15"
       r="75" />
  </g>
</svg>
