<?xml version="1.0" encoding="UTF-8" standalone="no"?>
<!-- Created with Inkscape (http://www.inkscape.org/) -->

<svg
   version="1.1"
   viewBox="0 0 70 70"
   id="svg4"
   sodipodi:docname="no-controller.svg"
   inkscape:version="1.3 (0e150ed, 2023-07-21)"
   xml:space="preserve"
   xmlns:inkscape="http://www.inkscape.org/namespaces/inkscape"
   xmlns:sodipodi="http://sodipodi.sourceforge.net/DTD/sodipodi-0.dtd"
   xmlns="http://www.w3.org/2000/svg"
   xmlns:svg="http://www.w3.org/2000/svg"
   xmlns:rdf="http://www.w3.org/1999/02/22-rdf-syntax-ns#"
   xmlns:cc="http://creativecommons.org/ns#"
   xmlns:dc="http://purl.org/dc/elements/1.1/"><defs
     id="defs4" /><sodipodi:namedview
     id="namedview4"
     pagecolor="#ffffff"
     bordercolor="#000000"
     borderopacity="0.25"
     inkscape:showpageshadow="2"
     inkscape:pageopacity="0.0"
     inkscape:pagecheckerboard="0"
     inkscape:deskcolor="#d1d1d1"
     inkscape:zoom="10.907307"
     inkscape:cx="35.022394"
     inkscape:cy="38.13957"
     inkscape:window-width="1792"
     inkscape:window-height="1067"
     inkscape:window-x="0"
     inkscape:window-y="25"
     inkscape:window-maximized="1"
     inkscape:current-layer="svg4" /><metadata
     id="metadata1"><rdf:RDF><cc:Work
         rdf:about=""><dc:format>image/svg+xml</dc:format><dc:type
           rdf:resource="http://purl.org/dc/dcmitype/StillImage" /></cc:Work></rdf:RDF></metadata><g
     id="g5"
     transform="matrix(0.12851421,0,0,0.12851421,2.1000612,2.1071734)"
     inkscape:label="g5"><path
       d="M 467.51,248.83 C 449.11,165.65 421.82,112.59 378.08,99.66 A 91.5,91.5 0 0 0 352,96 c -26.89,0 -48.11,16 -96,16 -47.89,0 -69.15,-16 -96,-16 a 99.09,99.09 0 0 0 -27.2,3.66 C 89,112.59 61.94,165.7 43.33,248.83 c -19,84.91 -15.56,152 21.58,164.88 26,9 49.25,-9.61 71.27,-37 25,-31.2 55.79,-40.8 119.82,-40.8 64.03,0 93.62,9.6 118.66,40.8 22,27.41 46.11,45.79 71.42,37.16 41.02,-14.01 40.44,-79.13 21.43,-165.04 z"
       style="fill:none;stroke:#000000;stroke-width:32px;stroke-miterlimit:10"
       id="path1" /><circle
       cx="292"
       cy="224"
       r="20"
       id="circle1-5" /><path
       d="M 336,288 A 20,20 0 1 1 356,268.05 20,20 0 0 1 336,288 Z"
       id="path2" /><circle
       cx="336"
       cy="180"
       r="20"
       id="circle2" /><circle
       cx="380"
       cy="224"
       r="20"
       id="circle3" /><line
       x1="160"
       y1="176"
       x2="160"
       y2="272"
       style="fill:none;stroke:#000000;stroke-width:32px;stroke-linecap:round;stroke-linejoin:round"
       id="line3" /><line
       x1="208"
       y1="224"
       x2="112"
       y2="224"
       style="fill:none;stroke:#000000;stroke-width:32px;stroke-linecap:round;stroke-linejoin:round"
       id="line4" /></g><g
     id="g6"
     transform="matrix(0.99214157,0,0,0.99214157,-1.7356503,-4.3289255)"><rect
       style="fill:#ffffff;fill-opacity:1;stroke:none;stroke-width:0;stroke-dasharray:none;stroke-opacity:1"
       id="rect4-4"
       width="30.269318"
       height="5.9999986"
       x="-88.158463"
       y="-0.64341468"
       transform="rotate(-135)" /><ellipse
       cx="53.301983"
       cy="49.969273"
       stroke-width="2.20113"
       id="circle1-57"
       style="fill:#ffffff;fill-opacity:1;stroke:#ffffff;stroke-width:7.35279;stroke-dasharray:none;stroke-opacity:1"
       rx="13.823604"
       ry="13.823606" /><rect
       style="fill:#000000;fill-opacity:1;stroke:#000000;stroke-width:0;stroke-dasharray:none;stroke-opacity:1"
       id="rect4"
       width="30.269318"
       height="3.9999988"
       x="-88.158455"
       y="0.35658157"
       transform="rotate(-135)" /><circle
       cx="53.301983"
       cy="49.969273"
       r="14.307355"
       stroke-width="2.20113"
       id="circle1"
       style="fill:none;stroke:#000000;stroke-width:4;stroke-dasharray:none;stroke-opacity:1" /></g><g
     inkscape:groupmode="layer"
     id="layer1"
     inkscape:label="Layer 1" /></svg>
