<svg xmlns="http://www.w3.org/2000/svg" fill="black" viewBox="0 0 70 70">
<path d="M10.792.082C8.796.364 7.074 1.359 6.015 2.843c-.594.832-1.361 2.413-1.564 3.224-.303 1.206-2.241 14.42-2.362 16.1-.216 3.003.038 6.745.659 9.697.932 4.429 3.25 9.08 6.583 13.206.782.968 3.636 3.9 8.946 9.191 6.822 6.797 7.996 7.917 9.382 8.949 5.109 3.804 9.337 5.537 15.916 6.522 1.249.187 2.319.21 9.917.21h8.516l1.022-.366c1.291-.462 2.145-.978 2.968-1.793a7.514 7.514 0 0 0 1.959-3.35c.172-.611.25-2.025.158-2.863-.072-.652-.952-3.673-3.142-10.792-3.3-10.724-3.475-11.328-3.849-13.328-.313-1.677-.437-5.651-.235-7.576.074-.704.841-5.876 1.706-11.492.864-5.616 1.572-10.464 1.572-10.775 0-1.451-.539-3.167-1.381-4.399-.908-1.327-2.214-2.256-4.044-2.874l-.817-.276L34.533.046C21.668.039 10.984.055 10.792.082m46.904 5.211c.76.353 1.169.85 1.344 1.632.131.588.048 1.228-1.332 10.239-.81 5.286-1.553 10.152-1.652 10.812-.455 3.046-.427 7.042.067 9.895.42 2.422.727 3.507 3.903 13.812 3.392 11.007 3.386 10.981 2.875 11.982-.288.564-.662.883-1.342 1.143-.442.169-1.348.184-8.597.146-8.812-.046-8.63-.034-12.023-.79-3.721-.829-7.385-2.662-10.976-5.492C28.494 57.514 14.41 43.462 13.253 42c-3.646-4.608-5.503-8.917-6.009-13.942-.401-3.993-.285-5.584 1.033-14.138.949-6.16 1.077-6.851 1.388-7.467.189-.373.45-.775.581-.893.613-.554-.325-.533 23.996-.537l22.866-.004.588.274M16.917 33.008v12.025h4.9v-9.45l2.887.001c1.588.001 3.229.056 3.646.124 1.391.226 2.085.825 2.326 2.012.068.333.172 1.734.23 3.113.071 1.693.173 2.784.314 3.355l.208.845h5.555v-.322c0-.194-.091-.379-.23-.466-.127-.079-.347-.367-.488-.64-.238-.458-.265-.723-.341-3.413-.085-3.015-.191-3.746-.68-4.705-.286-.56-1.139-1.348-1.814-1.676l-.525-.255.7-.336c1.332-.639 2.288-1.929 2.752-3.716.298-1.148.232-3.021-.141-3.992-.068-.179.17-.195 2.913-.195h2.988v19.716h5.016V25.32l3.588-.031 3.587-.031.032-2.129.032-2.129H34.883V23.235l-.596-.522a7.42 7.42 0 0 0-1.36-.894c-1.484-.724-1.615-.735-9.156-.788l-6.854-.048v12.025m12.95-7.504c1.128.527 1.551 1.264 1.612 2.811.038.952.01 1.147-.249 1.713-.205.448-.435.732-.769.954-.832.55-1.498.631-5.232.633l-3.412.002v-6.434l3.762.038c3.536.035 3.794.052 4.288.283" fill-rule="evenodd"/></svg>