<svg xmlns="http://www.w3.org/2000/svg" fill="black" viewBox="0 0 70 70"><path d="M14.452 6.654c-2.389.279-4.937 1.496-6.969 3.327-.676.609-4.097 4.812-4.757 5.844-.576.9-1.255 2.309-1.538 3.192-.396 1.232-.521 2.18-.51 3.85.009 1.46.142 2.367 1.823 12.483 1.165 7.013 1.919 11.242 2.111 11.842.837 2.61 2.742 4.378 5.469 5.073.912.232 1.239.235 26.507.235 17.517 0 25.779-.039 26.202-.123 1.653-.33 3.065-1.074 4.177-2.201 1.267-1.285 1.954-2.92 2.061-4.909.055-1.025-.052-1.775-1.41-9.917-.808-4.845-1.525-9.071-1.595-9.392-.399-1.848-1.344-4.014-2.321-5.319-1.541-2.056-4.037-3.77-6.594-4.527-1.898-.562-38.678-9.369-39.539-9.468a12.754 12.754 0 0 0-3.117.01m22.181 9.609c17.978 4.336 19.259 4.661 20.248 5.143 1.363.664 2.149 1.299 2.858 2.308 1.079 1.537 1.118 1.699 2.792 11.741.836 5.008 1.519 9.278 1.518 9.488a2.55 2.55 0 0 1-.654 1.723c-.8.886 1.449.817-26.812.816l-25.325-.001-.605-.282c-.657-.306-1.083-.842-1.311-1.651-.071-.251-.918-5.208-1.883-11.015-1.516-9.13-1.753-10.732-1.753-11.841.001-1.48.16-2.137.837-3.442.543-1.047 3.624-4.934 4.6-5.804.861-.768 2.21-1.474 3.265-1.709 1.856-.414 1.156-.557 22.225 4.526m-23.042 4.872c-.033.086-.046 5.485-.029 11.998l.03 11.842h4.9l.03-4.708.031-4.708 3.294.053c3.692.059 4.193.144 4.832.814.627.657.75 1.257.859 4.174.07 1.866.16 2.878.312 3.5l.214.875 2.768.031 2.768.032v-.348c0-.223-.08-.391-.222-.467-.122-.066-.34-.364-.485-.662-.243-.503-.269-.766-.348-3.532-.073-2.573-.119-3.095-.333-3.764-.3-.94-1.037-1.817-1.968-2.343l-.633-.357.775-.409c1.626-.858 2.651-2.646 2.821-4.923.191-2.542-1.296-5.213-3.523-6.333-1.569-.789-1.782-.809-9.296-.868-5.559-.044-6.748-.026-6.797.103m24.033.001c-.032.086-.046 5.484-.029 11.997l.03 11.842 5.6.034c7.279.045 8.815-.106 10.565-1.038 2.702-1.441 4.165-4.858 3.391-7.921-.42-1.661-1.289-2.789-2.749-3.573l-.667-.358.587-.376c1.497-.961 2.231-2.442 2.231-4.501 0-2.47-1.076-4.268-3.173-5.302-1.67-.824-1.891-.846-9.222-.906-5.357-.045-6.515-.027-6.564.102m-11.905 4.179c1.01.165 1.677.621 2.089 1.426.296.578.338.787.342 1.703.004.878-.04 1.135-.277 1.607-.155.309-.465.707-.69.884-.75.591-1.441.682-5.216.682H18.55V25.2l3.238.001c1.78 0 3.549.052 3.931.114m24.427.144c.737.211 1.373.777 1.538 1.369.28 1.01.029 2.323-.543 2.83-.123.11-.485.32-.804.467-.557.257-.712.268-4.224.303l-3.646.037v-5.288l3.529.052c2.681.04 3.678.095 4.15.23m.226 9.239c1.28.407 1.888 1.295 1.892 2.76.003 1.127-.24 1.841-.828 2.428-.825.825-1.076.869-5.265.92l-3.704.045V34.39l3.646.056c2.978.046 3.758.092 4.259.252" fill-rule="evenodd"/></svg>