<svg xmlns="http://www.w3.org/2000/svg" fill="black" viewBox="0 0 70 70"><path d="M12.222.12c-3.009.512-5.37 2.61-6.099 5.422-.441 1.698-.436 1.749 1.272 12.809.87 5.633 1.642 10.819 1.716 11.523.202 1.925.078 5.899-.235 7.576-.374 2-.549 2.605-3.844 13.314-1.999 6.495-3.076 10.175-3.148 10.756-.101.815-.021 2.273.161 2.92a7.522 7.522 0 0 0 1.957 3.343c.823.815 1.677 1.331 2.968 1.793l1.022.366h8.516c7.598 0 8.668-.023 9.917-.21 6.584-.986 10.772-2.703 15.925-6.531 1.38-1.025 2.542-2.133 9.372-8.94 8.216-8.186 9.144-9.2 11.102-12.139 3.196-4.798 4.715-9.422 5.093-15.5.207-3.342.06-4.984-1.181-13.115-.58-3.803-1.114-7.152-1.187-7.44-.203-.811-.97-2.392-1.564-3.224-.858-1.202-2.018-2.005-3.668-2.538L59.558.06 36.167.043C23.301.033 12.526.068 12.222.12M59.07 5.186c.597.213.805.419 1.238 1.232.346.649.426 1.075 1.414 7.489 1.191 7.738 1.337 9.286 1.161 12.352-.122 2.129-.131 2.213-.426 3.899-.689 3.94-2.602 7.908-5.711 11.842-1.153 1.459-15.238 15.512-16.709 16.672-3.591 2.83-7.255 4.663-10.976 5.492-3.393.756-3.211.744-12.023.79-7.249.038-8.155.023-8.597-.146-.68-.26-1.054-.579-1.342-1.143-.511-1.001-.517-.975 2.875-11.982 3.535-11.469 3.767-12.339 4.152-15.575.169-1.419.166-5.192-.005-6.708-.069-.61-.841-5.769-1.716-11.465-1.507-9.806-1.584-10.39-1.448-10.997.178-.794.584-1.29 1.347-1.645l.588-.274 22.866.004c18.985.003 22.943.031 23.312.163M23.45 33.017v12.018l8.429-.03 8.429-.03.032-2.129.032-2.129H28.467V21H23.45v12.017m12.043-9.888.032 2.129 3.587.031 3.587.031.03 9.828.029 9.827 2.538.031 2.537.032V25.317h7.117V21H35.461l.032 2.129" fill-rule="evenodd"/></svg>