<svg xmlns="http://www.w3.org/2000/svg" fill="black" viewBox="0 0 70 70"><path d="M30.023 18.784 35 22.518l4.977-3.734 4.978-3.734h-19.91l4.978 3.734M0 35v10.033h14.933V70h5.134V40.017H5.017V29.983h59.966v10.034h-15.05V70h5.134V45.033H70V24.967H0V35m23.712 13.096.03 14.379 2.946.031 2.945.031v-11.32l3.53.001c3.839.001 4.723.085 5.664.539 1.271.615 1.513 1.421 1.657 5.526.098 2.789.252 4.089.588 4.972l.107.282 3.298-.031 3.298-.031.039-.277c.027-.192-.087-.406-.373-.7-.769-.788-.808-.99-.905-4.681-.095-3.582-.215-4.47-.754-5.573-.386-.788-1.249-1.639-2.153-2.12l-.707-.377.832-.398c1.88-.901 3.114-2.834 3.495-5.474.236-1.641-.154-3.59-1.017-5.075-.669-1.152-2.118-2.549-3.182-3.07-1.924-.941-2.75-1.011-11.871-1.012l-7.497-.001.03 14.379m14.617-9.235c1.722.318 2.571 1.204 2.859 2.981.337 2.086-.469 3.717-2.128 4.305-.554.196-1.076.223-5.022.26l-4.405.041v-7.715h4.004c2.393 0 4.28.052 4.692.128" fill-rule="evenodd"/></svg>