<svg xmlns="http://www.w3.org/2000/svg" fill="black" viewBox="0 0 70 70"><path d="M32.783.067c-.224.026-.985.105-1.691.175-5.848.583-12.111 3.042-16.904 6.637C4.853 13.881-.328 24.585.04 36.108c.502 15.752 11.329 29.094 26.691 32.89 9.009 2.227 18.913.639 26.761-4.289C61.322 59.792 66.808 52.203 69 43.257c.752-3.069.927-4.631.927-8.257 0-3.626-.175-5.188-.927-8.257C65.532 12.589 53.876 2.177 39.375.281c-1.243-.163-5.763-.309-6.592-.214m6.745 5.289c6.123.928 11.79 3.742 16.341 8.117 3.846 3.697 6.783 8.714 8.118 13.867 1.328 5.125 1.328 10.195 0 15.32-1.362 5.256-4.289 10.205-8.302 14.037-10.786 10.3-27.417 11.104-39.215 1.894-.535-.417-1.541-1.304-2.237-1.97a30.043 30.043 0 0 1-8.328-14.388c-.66-2.677-.82-4.094-.82-7.233 0-3.139.16-4.556.82-7.233 2.102-8.525 7.976-15.813 15.844-19.654 3.572-1.744 6.613-2.582 10.976-3.026 1.179-.12 5.313.043 6.803.269M22.837 21.379c.064.08 2.044 3.239 4.399 7.02 3.641 5.842 4.267 6.91 4.171 7.116-.062.134-2.114 3.411-4.56 7.282-2.446 3.871-4.447 7.087-4.447 7.147 0 .066 1.367.097 3.454.079l3.455-.031 2.868-4.868c1.578-2.676 2.898-4.838 2.932-4.803.035.034 1.272 2.225 2.748 4.867l2.685 4.804 3.55.031c1.953.017 3.586-.01 3.628-.059.043-.049-2.015-3.414-4.572-7.478l-4.65-7.389 4.3-6.786c2.365-3.732 4.337-6.852 4.383-6.932.065-.115-.646-.145-3.395-.142l-3.478.003-2.552 4.549c-1.404 2.502-2.593 4.574-2.644 4.605-.05.031-1.229-2.017-2.621-4.552l-2.53-4.609h-3.62c-2.88 0-3.596.03-3.504.146" fill-rule="evenodd"/></svg>