<svg xmlns="http://www.w3.org/2000/svg" fill="black" viewBox="0 0 70 70"><path d="M32.783.067c-.224.026-.985.105-1.691.175-5.848.583-12.111 3.042-16.904 6.637C4.853 13.881-.328 24.585.04 36.108c.502 15.752 11.329 29.094 26.691 32.89 9.009 2.227 18.913.639 26.761-4.289C61.322 59.792 66.808 52.203 69 43.257c.752-3.069.927-4.631.927-8.257 0-3.626-.175-5.188-.927-8.257C65.532 12.589 53.876 2.177 39.375.281c-1.243-.163-5.763-.309-6.592-.214m6.745 5.289c6.123.928 11.79 3.742 16.341 8.117 3.846 3.697 6.783 8.714 8.118 13.867 1.328 5.125 1.328 10.195 0 15.32-1.362 5.256-4.289 10.205-8.302 14.037-10.786 10.3-27.417 11.104-39.215 1.894-.535-.417-1.541-1.304-2.237-1.97a30.043 30.043 0 0 1-8.328-14.388c-.66-2.677-.82-4.094-.82-7.233 0-3.139.16-4.556.82-7.233 2.102-8.525 7.976-15.813 15.844-19.654 3.572-1.744 6.613-2.582 10.976-3.026 1.179-.12 5.313.043 6.803.269M23.712 35.612l.03 14.38h7.408c7.583 0 8.303-.035 10.092-.482 3.849-.963 6.518-4.802 6.189-8.899-.21-2.608-1.47-4.606-3.567-5.655l-.804-.402.748-.487c1.471-.959 2.255-2.168 2.584-3.991.303-1.676.088-3.241-.663-4.818-.744-1.561-2.028-2.668-3.881-3.345-1.738-.634-2.434-.678-10.669-.679l-7.497-.001.03 14.379m14.102-9.253c1.139.186 1.61.357 2.048.741.63.553.849 1.134.852 2.258.005 1.698-.697 2.542-2.501 3.011-.563.147-1.466.181-4.754.181H29.4v-6.3l3.879.001c2.134 0 4.174.049 4.535.108m1.112 11.245c.988.326 1.682.867 2.058 1.603.287.564.331.783.333 1.665.002.646-.07 1.25-.199 1.658-.224.712-.916 1.585-1.494 1.884-.962.497-1.377.539-5.878.589l-4.346.048V37.316l4.462.045c3.8.038 4.552.075 5.064.243" fill-rule="evenodd"/></svg>