<svg xmlns="http://www.w3.org/2000/svg" fill="black" viewBox="0 0 70 70"><path d="M32.783.067c-.224.026-.985.105-1.691.175-5.848.583-12.111 3.042-16.904 6.637C4.853 13.881-.328 24.585.04 36.108c.502 15.752 11.329 29.094 26.691 32.89 9.009 2.227 18.913.639 26.761-4.289C61.322 59.792 66.808 52.203 69 43.257c.752-3.069.927-4.631.927-8.257 0-3.626-.175-5.188-.927-8.257C65.532 12.589 53.876 2.177 39.375.281c-1.243-.163-5.763-.309-6.592-.214m6.745 5.289c6.123.928 11.79 3.742 16.341 8.117 3.846 3.697 6.783 8.714 8.118 13.867 1.328 5.125 1.328 10.195 0 15.32-1.362 5.256-4.289 10.205-8.302 14.037-10.786 10.3-27.417 11.104-39.215 1.894-.535-.417-1.541-1.304-2.237-1.97a30.043 30.043 0 0 1-8.328-14.388c-.66-2.677-.82-4.094-.82-7.233 0-3.139.16-4.556.82-7.233 2.102-8.525 7.976-15.813 15.844-19.654 3.572-1.744 6.613-2.582 10.976-3.026 1.179-.12 5.313.043 6.803.269M22.4 21.28c0 .026 2.231 4.072 4.958 8.99l4.959 8.943V50.054l3.004-.031 3.004-.031.058-5.542.059-5.542 4.356-8.108a2906.97 2906.97 0 0 1 4.76-8.838l.403-.729h-6.844l-2.67 5.863a965.554 965.554 0 0 1-2.858 6.244l-.188.382-2.972-6.244-2.971-6.243-3.529-.001c-1.941 0-3.529.021-3.529.046" fill-rule="evenodd"/></svg>