<svg xmlns="http://www.w3.org/2000/svg" fill="black" viewBox="0 0 70 70"><path d="M52.267 6.646c-.764.099-37.852 9.015-39.375 9.466-2.557.757-5.053 2.471-6.594 4.527-.977 1.305-1.922 3.471-2.321 5.319C3.521 28.07.933 44.222.933 44.953c0 1.079.342 2.451.889 3.566.933 1.903 2.997 3.38 5.388 3.858.423.084 8.685.123 26.202.123 25.268 0 25.595-.003 26.507-.235 1.436-.366 2.465-.912 3.422-1.814.983-.928 1.629-1.956 2.047-3.259.192-.6.947-4.83 2.112-11.842 1.687-10.155 1.813-11.017 1.82-12.483.014-2.663-.44-4.324-1.841-6.723-.499-.852-4.348-5.627-5.011-6.213-1.627-1.44-3.596-2.515-5.483-2.994-1.26-.32-3.453-.455-4.718-.291m3.242 5.089c1.123.231 2.447.908 3.348 1.711.976.87 4.057 4.757 4.6 5.804.676 1.304.834 1.959.834 3.453-.001 1.12-.236 2.711-1.752 11.841-.964 5.801-1.81 10.753-1.881 11.004-.228.809-.654 1.345-1.311 1.651l-.605.282-25.325.001c-28.261.001-26.012.07-26.812-.816a2.55 2.55 0 0 1-.654-1.723c-.001-.21.682-4.48 1.518-9.488 1.674-10.042 1.713-10.204 2.792-11.741.709-1.009 1.495-1.644 2.858-2.308.99-.482 2.251-.802 20.189-5.121 10.524-2.533 19.265-4.628 19.425-4.655.688-.114 1.941-.067 2.776.105m-40.171 9.409c-.031.081-.043 5.476-.026 11.989l.03 11.842 8.429.03 8.429.03v-4.318H20.418l-.03-9.83-.03-9.829-2.482-.031c-1.922-.025-2.494.002-2.538.117m20.42-.008c-.033.086-.046 5.484-.03 11.997l.03 11.842 5.6.034c7.301.045 8.563-.073 10.401-.969 1.567-.765 2.86-2.286 3.434-4.038.241-.735.28-1.073.271-2.319-.012-1.562-.183-2.273-.803-3.331-.378-.644-1.348-1.508-2.151-1.914l-.641-.324.352-.182c.558-.289 1.515-1.206 1.844-1.768.499-.851.684-1.803.621-3.206-.065-1.472-.274-2.189-.922-3.159-.845-1.265-2.131-2.068-4.047-2.526-1.081-.259-13.865-.384-13.959-.137m11.688 4.186c1.225.164 1.871.5 2.217 1.153.495.936.294 2.577-.388 3.183-.124.11-.486.32-.804.467-.558.257-.713.268-4.225.303l-3.646.037V25.2h2.967c1.631 0 3.377.055 3.879.122m1.06 9.376c.729.232 1.352.746 1.678 1.385.184.361.236.686.233 1.462-.002.863-.047 1.086-.332 1.643-.206.403-.504.765-.795.967-.857.594-1.51.678-5.273.678H40.6V34.39l3.646.056c2.978.046 3.758.092 4.26.252" fill-rule="evenodd"/></svg>