<svg xmlns="http://www.w3.org/2000/svg" fill="black" viewBox="0 0 70 70"><path d="m31.276 2.779-3.665 2.763 3.694.03c2.032.017 5.358.017 7.39 0l3.694-.03-3.693-2.771C36.664 1.247 34.988.004 34.972.008a485.03 485.03 0 0 0-3.696 2.771m1.857 4.811c-3.616.219-6.868 1.1-10.325 2.795-7.191 3.527-12.47 10.056-14.461 17.89-.622 2.449-.809 3.998-.809 6.725 0 2.727.187 4.276.809 6.725a27.512 27.512 0 0 0 19.928 19.928c2.449.622 3.998.809 6.725.809 2.727 0 4.276-.187 6.725-.809a27.512 27.512 0 0 0 19.928-19.928c.622-2.449.809-3.998.809-6.725 0-1.704-.06-2.794-.21-3.792-1.459-9.751-7.695-17.813-16.695-21.587-3.843-1.611-8.042-2.298-12.424-2.031m3.85 5.017c8.974.822 16.521 6.801 19.356 15.335a22.361 22.361 0 0 1-1.146 16.916c-2.985 6.097-8.344 10.393-15.001 12.027-6.361 1.56-13.397.093-18.723-3.905-1.149-.863-2.994-2.641-3.881-3.74-4.873-6.04-6.344-14.022-3.927-21.298 2.254-6.785 7.493-12.024 14.281-14.281a21.836 21.836 0 0 1 9.041-1.054M28 34.533V45.5h15.522l-.032-1.954-.032-1.954-5.395-.031-5.396-.03V23.567H28v10.966M2.77 31.305-.001 35l2.771 3.695 2.772 3.694.03-3.694a535.42 535.42 0 0 0 0-7.39l-.03-3.694-2.772 3.694M64.4 35c0 6.276.024 7.374.16 7.229.088-.094 1.349-1.759 2.802-3.7L70.003 35l-2.641-3.529c-1.453-1.941-2.714-3.606-2.802-3.7-.136-.145-.16.953-.16 7.229M27.771 64.56c.094.088 1.759 1.349 3.7 2.802L35 70.003l3.529-2.641c1.941-1.453 3.606-2.714 3.7-2.802.145-.136-.953-.16-7.229-.16s-7.374.024-7.229.16" fill-rule="evenodd"/></svg>